<svg id="Layer_1" data-name="Layer 1" xmlns="http://www.w3.org/2000/svg" viewBox="0 0 32 32">
  <defs>
    <style>
      .cls-1 {
        fill: #9b9b9b;
      }
    </style>
  </defs>
  <path id="j3av9yomva" class="cls-1" d="M2,16c0,7.73,6.27,14,14,14s14-6.27,14-14S23.73,2,16,2,2,8.27,2,16Zm20.35-5.69c.6,0,1.08,.49,1.08,1.08v9.28c0,.6-.48,1.08-1.08,1.08H9.65c-.6,0-1.08-.49-1.08-1.08V11.4c0-.6,.49-1.09,1.08-1.09h12.71Zm-3.69,5.83l-.36,.39c-.6,.63-1.43,.98-2.3,.98s-1.7-.36-2.3-.99l-.3-.32-3.44,4.68h12.04l-3.33-4.74Zm3.9-4.19l-3.29,3.53,3.29,4.69V11.96Zm-13.13,0v8.15l3.35-4.56s-3.35-3.59-3.35-3.59Zm12.65-.78H9.91l4.42,4.75c.39,.41,.93,.67,1.5,.71h.17c.63,0,1.23-.25,1.66-.7,0,0,4.43-4.75,4.43-4.75Z"/>
</svg>