<svg id="Layer_1" data-name="Layer 1" xmlns="http://www.w3.org/2000/svg" viewBox="0 0 32 32">
  <defs>
    <style>
      .cls-1 {
        fill: #cf3427;
        fill-rule: evenodd;
      }
    </style>
  </defs>
  <path class="cls-1" d="M20.45,19.43c-.13,0-.22,.04-.28,.11-.06,.07-.08,.2-.08,.37v.42h.72v-.42c0-.17-.03-.3-.09-.37-.05-.08-.15-.11-.27-.11Zm-2.81-.01c.11,0,.2,.04,.25,.11,.06,.07,.09,.18,.09,.32v2.14c0,.13-.02,.23-.07,.28-.05,.06-.12,.09-.22,.09-.07,0-.13-.02-.2-.05-.06-.03-.13-.08-.19-.15v-2.58c.06-.06,.11-.1,.17-.13,.06-.03,.11-.04,.17-.04Zm2.45,1.56v.78c0,.22,.03,.37,.08,.45,.06,.08,.15,.13,.28,.13s.23-.04,.28-.11c.05-.07,.08-.23,.08-.47v-.19h.84v.21c0,.43-.1,.74-.31,.96-.2,.21-.51,.32-.91,.32-.36,0-.65-.11-.86-.34-.21-.23-.32-.54-.32-.94v-1.86c0-.36,.12-.65,.35-.88,.23-.23,.53-.34,.89-.34s.66,.11,.86,.31c.2,.21,.3,.51,.3,.9v1.06h-1.56s0,0,0,0Zm-1.46,1.79c-.13,.16-.31,.23-.55,.23-.16,0-.3-.03-.43-.09-.13-.06-.24-.15-.35-.28v.32h-.82v-5.61h.82v1.81c.11-.13,.23-.22,.35-.29,.12-.07,.25-.1,.38-.1,.26,0,.46,.09,.59,.26,.14,.18,.2,.43,.2,.77v2.3c0,.29-.06,.52-.19,.67h0Zm-3.58,.18v-.46c-.15,.17-.31,.3-.47,.38-.16,.09-.32,.13-.47,.13-.19,0-.33-.06-.43-.18-.09-.12-.14-.31-.14-.56v-3.46h.81v3.18c0,.1,.02,.17,.05,.21,.04,.04,.09,.07,.17,.07,.06,0,.14-.03,.23-.09s.18-.13,.25-.22v-3.15h.81v4.14s-.81,0-.81,0Zm-2.82-4.8v4.8h-.92v-4.8h-.95v-.82h2.82v.82s-.95,0-.95,0Zm3.77-2.62s5.64,0,6.31,.68c.67,.67,.68,3.97,.68,3.99,0,0,0,3.32-.68,3.99-.67,.67-6.31,.68-6.31,.68,0,0-5.64-.01-6.31-.68-.67-.67-.67-3.97-.67-3.99,0-.02,0-3.32,.67-3.99,.67-.67,6.31-.68,6.31-.68Zm4.45-1.74h-.92v-.5c-.17,.19-.34,.33-.53,.42-.18,.1-.36,.15-.53,.15-.21,0-.37-.07-.48-.2-.11-.14-.16-.34-.16-.61v-3.81h.92v3.5c0,.11,.02,.19,.06,.24,.04,.05,.1,.07,.19,.07,.07,0,.15-.03,.26-.1,.1-.06,.2-.14,.28-.25v-3.46h.92v4.56h0Zm-4.98-.78c.07,.07,.16,.1,.28,.1s.22-.04,.3-.1c.07-.07,.11-.17,.11-.29v-2.49c0-.1-.04-.18-.11-.24s-.17-.09-.29-.09c-.11,0-.2,.03-.27,.09-.07,.06-.1,.14-.1,.24v2.49c0,.12,.03,.22,.1,.29h0Zm-.67-3.59c.25-.21,.58-.31,.99-.31,.38,0,.69,.11,.93,.33,.24,.22,.36,.51,.36,.85v2.36c0,.39-.12,.7-.36,.92-.24,.22-.57,.33-.98,.33s-.72-.11-.96-.34c-.24-.23-.36-.54-.36-.93v-2.37c0-.35,.12-.64,.37-.84h0Zm-2.87-1.82h-1.04l1.23,3.74v2.45h1.03v-2.57l1.2-3.62h-1.05l-.64,2.47h-.07l-.67-2.47h0Zm4.08,22.4c-7.73,0-14-6.27-14-14S8.27,2,16,2s14,6.27,14,14-6.27,14-14,14Z"/>
</svg>