<svg id="Layer_1" data-name="Layer 1" xmlns="http://www.w3.org/2000/svg" viewBox="0 0 32 32">
  <defs>
    <style>
      .cls-1 {
        fill: #008bcf;
      }
    </style>
  </defs>
  <path id="d01no60e5a" class="cls-1" d="M16,2c7.73,0,14,6.27,14,14s-6.27,14-14,14S2,23.73,2,16,8.27,2,16,2Zm-1.49,7.36c-.19-.86-1.03-1.4-1.89-1.22l-2.55,.36c-.29,.06-.5,.25-.58,.5-.3,1.04-.46,2.12-.46,3.19,0,6.05,4.82,11.12,11,11.67,.31,.03,.63-.1,.82-.36l1.36-1.75c.26-.32,.38-.74,.33-1.15-.05-.42-.27-.8-.6-1.05l-.69-.55-1.18-.88c-.43-.33-.97-.48-1.52-.44-.29,.02-.53,.15-1.08,.51-.38,.24-.56,.34-.65,.37-1.7-.97-2.98-2.52-3.62-4.37,.1-.07,.26-.16,.5-.29,.6-.33,.8-.46,.96-.7,.29-.45,.4-1.01,.29-1.54l-.28-1.43-.17-.87Zm-1.73-.36c.41-.09,.79,.15,.88,.54l.17,.86,.29,1.43c.06,.31,0,.63-.17,.89-.04,.06-.22,.18-.64,.41-.59,.32-.79,.45-.95,.7-.07,.11-.09,.24-.05,.37,.69,2.26,2.26,4.15,4.35,5.26,.18,.1,.39,.05,.52-.08,.19-.07,.4-.2,.82-.46,.38-.24,.57-.34,.65-.35,.33-.03,.66,.06,.92,.26l1.18,.88,.69,.55c.16,.12,.25,.28,.27,.46,.02,.18-.03,.36-.15,.5l-1.37,1.76s-.03,.02-.05,.02c-5.74-.51-10.21-5.21-10.21-10.8,0-.96,.13-1.92,.39-2.84l2.47-.35Z"/>
</svg>