<svg id="Layer_1" data-name="Layer 1" xmlns="http://www.w3.org/2000/svg" viewBox="0 0 32 32">
  <defs>
    <style>
      .cls-1 {
        fill: #007ab9;
        fill-rule: evenodd;
      }
    </style>
  </defs>
  <path class="cls-1" d="M23.86,22.6v-5.47c0-2.93-1.56-4.29-3.65-4.29-1.68,0-2.44,.93-2.86,1.57v-1.35h-3.17c.04,.89,0,9.53,0,9.53h3.17v-5.32c0-.28,.02-.57,.1-.77,.23-.57,.75-1.16,1.62-1.16,1.15,0,1.61,.87,1.61,2.16v5.1s3.17,0,3.17,0ZM10.85,11.76c1.11,0,1.79-.73,1.79-1.65-.02-.93-.69-1.65-1.77-1.65s-1.79,.71-1.79,1.65,.69,1.65,1.75,1.65h.02Zm5.15,18.24c-7.73,0-14-6.27-14-14S8.27,2,16,2s14,6.27,14,14-6.27,14-14,14Zm-3.57-7.4V13.06h-3.17v9.53h3.17Z"/>
</svg>