<svg id="Layer_1" data-name="Layer 1" xmlns="http://www.w3.org/2000/svg" viewBox="0 0 32 32">
  <defs>
    <style>
      .cls-1 {
        fill: #598dca;
        fill-rule: evenodd;
      }
    </style>
  </defs>
  <path class="cls-1" d="M17.95,10.53c-1.22,.44-1.99,1.59-1.91,2.85l.03,.48-.49-.06c-1.78-.23-3.33-1-4.65-2.29l-.64-.64-.17,.47c-.35,1.06-.13,2.17,.61,2.93,.39,.41,.3,.47-.37,.23-.24-.08-.44-.14-.46-.11-.07,.07,.17,.97,.35,1.32,.25,.49,.77,.98,1.34,1.27l.48,.23h-.57c-.55,0-.57,.02-.51,.23,.2,.64,.97,1.33,1.83,1.62l.61,.21-.53,.32c-.78,.46-1.7,.71-2.62,.73-.44,0-.8,.05-.8,.08,0,.1,1.19,.65,1.89,.87,2.08,.64,4.56,.37,6.41-.73,1.32-.78,2.64-2.33,3.26-3.84,.33-.8,.66-2.26,.66-2.97,0-.46,.03-.51,.58-1.06,.32-.32,.63-.66,.68-.76,.1-.19,.09-.19-.41-.02-.83,.3-.95,.26-.54-.19,.3-.32,.67-.89,.67-1.06,0-.03-.15,.02-.31,.11-.18,.1-.57,.25-.86,.34l-.53,.17-.48-.33c-.26-.18-.63-.38-.83-.43-.5-.14-1.26-.12-1.71,.04Zm-1.95,19.47c-7.73,0-14-6.27-14-14S8.27,2,16,2s14,6.27,14,14-6.27,14-14,14Z"/>
</svg>